<?xml version="1.0" encoding="UTF-8" standalone="no"?>
<!DOCTYPE svg PUBLIC "-//W3C//DTD SVG 1.1//EN" "http://www.w3.org/Graphics/SVG/1.1/DTD/svg11.dtd">
<svg width="100%" height="100%" viewBox="0 0 482 496" version="1.1" xmlns="http://www.w3.org/2000/svg" xmlns:xlink="http://www.w3.org/1999/xlink" xml:space="preserve" xmlns:serif="http://www.serif.com/" style="fill-rule:evenodd;clip-rule:evenodd;stroke-linejoin:round;stroke-miterlimit:2;">
    <g id="g114" transform="matrix(0.0819127,0,0,-0.0819127,-1001.19,682.827)">
        <g id="g116">
            <clipPath id="_clip1">
                <path d="M17124.7,4378C17179,4453.9 17235.3,4528.4 17291.7,4603C17345,4679.8 17396.3,4758.4 17446.9,4837.6C17501.1,4914.2 17547.5,4996.3 17595.6,5077.1C17642.2,5158.9 17694.8,5236.9 17736.9,5321.4L17814.5,5466.6L16044.4,6220.1C16037.9,6203.3 16031.4,6186.4 16025,6169.7C16000.2,6112.3 15976,6056 15952.2,6000.9C15927.7,5946.2 15907.2,5888.6 15881.7,5838C15857.2,5786.2 15833.3,5735.6 15809.9,5686.2C15765.9,5583.8 15714.4,5496.9 15671.3,5408.1C15660.2,5386.1 15649.4,5364.5 15638.7,5343.2C15627.1,5322.9 15615.7,5302.9 15604.6,5283.3C15582.5,5243.5 15561.1,5205.1 15540.6,5168.1C15501.4,5091.6 15458.9,5028.5 15422.7,4967.8C15351,4845.2 15287.9,4756 15247.7,4690.2C15227.5,4657.3 15211.4,4633 15200,4617.3C15189,4601 15183.4,4592.5 15183.4,4592.5C15183.4,4592.5 15191.3,4598.6 15206.8,4610.4C15222.6,4621.6 15244.8,4639.8 15272.8,4665C15328.5,4715.6 15415.1,4783 15512.3,4884.4C15562.5,4932.8 15618.7,4985.4 15673.9,5049.6C15730,5112.6 15793.6,5177.1 15852.6,5255.8C15906.5,5325 15967.7,5393.1 16022.2,5474.9C16077.7,5555.7 16141.1,5634.3 16196,5727.1C16160.1,5647.1 16117.9,5574.1 16078.4,5500.3C16014.5,5371.6 15941.4,5256.6 15874.6,5139.6C15840.8,5081.5 15803,5029.1 15768.8,4974.1C15733.8,4919.7 15700.5,4864.8 15663.6,4815.8C15627.6,4765 15592.5,4715.2 15558.1,4666.5C15523.2,4618.1 15486.1,4574.1 15451.6,4528.5C15383.6,4435.9 15310.9,4357.2 15245.1,4277.8C15178.3,4200 15110.6,4132.7 15050.8,4064.9C14986.9,4001.4 14928.2,3943.2 14875.2,3890.6C14763.4,3791.7 14677.1,3707.1 14612.9,3656.8C14550.8,3602.6 14517.7,3573.8 14517.7,3573.8C14517.7,3573.8 14558.4,3592.8 14634.7,3628.6C14711.8,3662.5 14819.6,3721 14953.8,3797C15018.9,3837.8 15092.8,3879.7 15169,3930.9C15206.5,3957.1 15245.5,3984.5 15286,4012.8C15306.2,4027 15326.7,4041.4 15347.6,4056C15367.5,4071.9 15387.8,4088 15408.3,4104.4C15449.4,4137 15491.7,4170.5 15535.3,4205.1C15578.4,4240 15619.6,4279.9 15663.5,4318.3C15752.7,4393.6 15836.5,4483.9 15926.9,4573.4C15994.3,4643.3 16058.5,4722 16127.3,4797.8C15960.9,4566.5 15784.4,4352.4 15603.4,4155.9C15397.2,3937.8 15181.7,3746.6 14968.2,3580.7C14754.9,3414.2 14540.8,3277.8 14341,3166C14242,3107.9 14144.2,3061.5 14054.5,3014C13962.4,2972.2 13878.5,2928.9 13798.4,2897.7C13719.2,2864.5 13647.7,2834.8 13584.1,2811.2C13521.1,2786 13466.5,2765.6 13421.3,2750.9C13376.3,2734.9 13341.9,2722.6 13318.7,2714.4C13295.2,2706.5 13283.1,2702.5 13283.1,2702.5C13283.1,2702.5 13296.7,2703.6 13323.1,2705.9C13349,2709.1 13387.6,2713.7 13437.8,2719.8C13488.2,2725.3 13549.1,2734.7 13620,2746.8C13691.5,2757.3 13771.4,2774.4 13860.4,2793.2C14037.4,2832 14248.5,2885 14474.8,2969.9C14701.3,3053.2 14947.3,3159.6 15193.7,3301.8C15221.4,3315.9 15248.3,3333.4 15274.9,3349.9C15258.1,3337.7 15241,3325.2 15224.3,3313.1C14957.3,3126 14680.6,2971.6 14409.5,2845.2C14138,2719.3 13871.4,2622.9 13623.4,2550.6C13375.1,2478.7 13146.9,2428.3 12948.8,2397.2C12750.4,2366.9 12585,2349.5 12460.2,2345.2C12398.3,2342.6 12345.8,2342.8 12305.8,2344.3C12282.8,2346 12270.4,2345.9 12253.7,2348.2C12233.2,2351.7 12222.7,2353.4 12222.7,2353.4C12285.2,2335.9 12569.4,2284.1 12997.4,2288.1C13211.1,2288.7 13460.9,2303.2 13733.3,2343.9C14005.6,2383.7 14300.4,2449.1 14602.9,2547.7C14678.3,2572.7 14755.3,2597.5 14830.4,2628.6C14905.9,2658.7 14984,2686.8 15059.4,2722C15212.6,2787.8 15364.2,2865 15514.2,2950.3C15588.2,2994.4 15664.8,3036.4 15738,3084.3C15810.5,3133.1 15884.2,3181.8 15956.8,3232.8C16028.5,3285 16099.2,3339.3 16170.3,3394.1C16238.4,3451.8 16307.1,3510.1 16376.4,3568.9C16646.3,3810.5 16897.3,4082.8 17124.7,4378Z"/>
            </clipPath>
            <g clip-path="url(#_clip1)">
                <path id="path136" d="M17124.7,4378C17179,4453.9 17235.3,4528.4 17291.7,4603C17345,4679.8 17396.3,4758.4 17446.9,4837.6C17501.1,4914.2 17547.5,4996.3 17595.6,5077.1C17642.2,5158.9 17694.8,5236.9 17736.9,5321.4L17814.5,5466.6L16044.4,6220.1C16037.9,6203.3 16031.4,6186.4 16025,6169.7C16000.2,6112.3 15976,6056 15952.2,6000.9C15927.7,5946.2 15907.2,5888.6 15881.7,5838C15857.2,5786.2 15833.3,5735.6 15809.9,5686.2C15765.9,5583.8 15714.4,5496.9 15671.3,5408.1C15660.2,5386.1 15649.4,5364.5 15638.7,5343.2C15627.1,5322.9 15615.7,5302.9 15604.6,5283.3C15582.5,5243.5 15561.1,5205.1 15540.6,5168.1C15501.4,5091.6 15458.9,5028.5 15422.7,4967.8C15351,4845.2 15287.9,4756 15247.7,4690.2C15227.5,4657.3 15211.4,4633 15200,4617.3C15189,4601 15183.4,4592.5 15183.4,4592.5C15183.4,4592.5 15191.3,4598.6 15206.8,4610.4C15222.6,4621.6 15244.8,4639.8 15272.8,4665C15328.5,4715.6 15415.1,4783 15512.3,4884.4C15562.5,4932.8 15618.7,4985.4 15673.9,5049.6C15730,5112.6 15793.6,5177.1 15852.6,5255.8C15906.5,5325 15967.7,5393.1 16022.2,5474.9C16077.7,5555.7 16141.1,5634.3 16196,5727.1C16160.1,5647.1 16117.9,5574.1 16078.4,5500.3C16014.5,5371.6 15941.4,5256.6 15874.6,5139.6C15840.8,5081.5 15803,5029.1 15768.8,4974.1C15733.8,4919.7 15700.5,4864.8 15663.6,4815.8C15627.6,4765 15592.5,4715.2 15558.1,4666.5C15523.2,4618.1 15486.1,4574.1 15451.6,4528.5C15383.6,4435.9 15310.9,4357.2 15245.1,4277.8C15178.3,4200 15110.6,4132.7 15050.8,4064.9C14986.9,4001.4 14928.2,3943.2 14875.2,3890.6C14763.4,3791.7 14677.1,3707.1 14612.9,3656.8C14550.8,3602.6 14517.7,3573.8 14517.7,3573.8C14517.7,3573.8 14558.4,3592.8 14634.7,3628.6C14711.8,3662.5 14819.6,3721 14953.8,3797C15018.9,3837.8 15092.8,3879.7 15169,3930.9C15206.5,3957.1 15245.5,3984.5 15286,4012.8C15306.2,4027 15326.7,4041.4 15347.6,4056C15367.5,4071.9 15387.8,4088 15408.3,4104.4C15449.4,4137 15491.7,4170.5 15535.3,4205.1C15578.4,4240 15619.6,4279.9 15663.5,4318.3C15752.7,4393.6 15836.5,4483.9 15926.9,4573.4C15994.3,4643.3 16058.5,4722 16127.3,4797.8C15960.9,4566.5 15784.4,4352.4 15603.4,4155.9C15397.2,3937.8 15181.7,3746.6 14968.2,3580.7C14754.9,3414.2 14540.8,3277.8 14341,3166C14242,3107.9 14144.2,3061.5 14054.5,3014C13962.4,2972.2 13878.5,2928.9 13798.4,2897.7C13719.2,2864.5 13647.7,2834.8 13584.1,2811.2C13521.1,2786 13466.5,2765.6 13421.3,2750.9C13376.3,2734.9 13341.9,2722.6 13318.7,2714.4C13295.2,2706.5 13283.1,2702.5 13283.1,2702.5C13283.1,2702.5 13296.7,2703.6 13323.1,2705.9C13349,2709.1 13387.6,2713.7 13437.8,2719.8C13488.2,2725.3 13549.1,2734.7 13620,2746.8C13691.5,2757.3 13771.4,2774.4 13860.4,2793.2C14037.4,2832 14248.5,2885 14474.8,2969.9C14701.3,3053.2 14947.3,3159.6 15193.7,3301.8C15221.4,3315.9 15248.3,3333.4 15274.9,3349.9C15258.1,3337.7 15241,3325.2 15224.3,3313.1C14957.3,3126 14680.6,2971.6 14409.5,2845.2C14138,2719.3 13871.4,2622.9 13623.4,2550.6C13375.1,2478.7 13146.9,2428.3 12948.8,2397.2C12750.4,2366.9 12585,2349.5 12460.2,2345.2C12398.3,2342.6 12345.8,2342.8 12305.8,2344.3C12282.8,2346 12270.4,2345.9 12253.7,2348.2C12233.2,2351.7 12222.7,2353.4 12222.7,2353.4C12285.2,2335.9 12569.4,2284.1 12997.4,2288.1C13211.1,2288.7 13460.9,2303.2 13733.3,2343.9C14005.6,2383.7 14300.4,2449.1 14602.9,2547.7C14678.3,2572.7 14755.3,2597.5 14830.4,2628.6C14905.9,2658.7 14984,2686.8 15059.4,2722C15212.6,2787.8 15364.2,2865 15514.2,2950.3C15588.2,2994.4 15664.8,3036.4 15738,3084.3C15810.5,3133.1 15884.2,3181.8 15956.8,3232.8C16028.5,3285 16099.2,3339.3 16170.3,3394.1C16238.4,3451.8 16307.1,3510.1 16376.4,3568.9C16646.3,3810.5 16897.3,4082.8 17124.7,4378" style="fill:url(#_Radial2);fill-rule:nonzero;"/>
            </g>
        </g>
    </g>
    <g id="path138" transform="matrix(0.0819127,0,0,-0.0819127,-1001.19,682.827)">
        <path d="M17863.6,8026.9C17912.4,8006.1 17929,7935.5 17900.7,7869C17872.4,7802.6 17810,7765.5 17761.2,7786.3C17712.5,7807.1 17695.9,7877.7 17724.2,7944.2C17752.4,8010.6 17814.9,8047.7 17863.6,8026.9ZM17947.8,5640L18015.9,5800C18048,5875.3 18012.6,5963.1 17937.3,5995.1L17488.1,6186.3C17512.1,6256.4 17448.1,6351.7 17334.2,6428.4C17553.9,6752.3 17834,7282.1 17939.5,7530C18101.6,7910.8 18172.5,8245.3 17989.7,8323.1C17806.9,8400.9 17615,8117.9 17452.9,7737.1C17347.4,7489.2 17159.7,6920.1 17078.5,6537.2C16944.2,6566.2 16831.2,6546.2 16797.4,6480.3L16348.2,6671.6C16272.9,6703.6 16185.1,6668.2 16153,6593L16084.9,6433L17947.8,5640" style="fill:rgb(57,53,54);fill-rule:nonzero;"/>
    </g>
    <defs>
        <radialGradient id="_Radial2" cx="0" cy="0" r="1" gradientUnits="userSpaceOnUse" gradientTransform="matrix(-2047.96,-3346.66,-3346.66,2047.96,16922.8,5939.5)"><stop offset="0" style="stop-color:rgb(233,19,72);stop-opacity:1"/><stop offset="0.16" style="stop-color:rgb(233,19,72);stop-opacity:1"/><stop offset="0.37" style="stop-color:rgb(249,167,43);stop-opacity:1"/><stop offset="0.58" style="stop-color:rgb(127,204,40);stop-opacity:1"/><stop offset="0.8" style="stop-color:rgb(81,173,229);stop-opacity:1"/><stop offset="1" style="stop-color:rgb(44,56,146);stop-opacity:1"/></radialGradient>
    </defs>
</svg>
