<svg xmlns="http://www.w3.org/2000/svg" version="1.0" viewBox="0 0 1280 1187">
  <path d="m487 2-3 2v420H276l-2 2c-2 2-2 10-2 356v354h-34l-34-1v-35a118150 118150 0 0 0 4-279c-2-3-4-3-7 0-3 2-3 2-3 13l-1 13v2l-21-1h-21l-1 2c-2 2-2 5-2 13v11h-2c-2 0-5 2-13 13l-10 14 62 3c0-1-23-29-25-29l-1-8v-8h34v26a65180 65180 0 0 0-6 247v3h-20l-96-1H0l1 20v21a159707 159707 0 0 0 1225 12h53v-6l1-21v-14h-28a27509 27509 0 0 0-254-4l-8-26-7-25 1-27 2-29 42-29 43-27a198 198 0 0 0 3-59l-2-30-8-33-7-34-13-31-13-32a1293 1293 0 0 0-96 20l-35 40-33 37-1-427c0-421 0-427-2-429L675 0H489l-2 2zm366 574v563H734V705h97v-35H701v7H578V552l-2-127-41-1h-38V14h43l178-1h135v563zm-288-19v120h-64c-56 0-64 0-66 2l-2 1v452h-20l-33-1h-14v-75h-53v75h-28V437h280v120zm157 148v223l-1 208h-92v-68h-60v68h-36c-35 0-36 0-36-2s-1-2-26-2l-25-1-1-220V690h276v15zm153 244a111 111 0 0 0 25 53l6 8 16 5a7572 7572 0 0 1 39 14l-1 22c-2 18-2 19 1 46 2 28 3 42 1 45h-96v-112l1-111 8 30zm76 5c15 26 17 29 15 29-2 1-2 2-2 7l-1 7-29-70c-2-5 1-1 17 27zm38-11c1 12 1 13-2 25l-5 13h-2a473 473 0 0 1 8-52l1 14zm-55 31 29 31-1 7-1 7-20-26a8103 8103 0 0 0-37-49l30 30zm108 10-55 46v-20l27-13c26-13 31-15 29-13z"/>
  <path d="M512 144v15h31v-30h-31v15zM622 133l-1 15v12h31v-15l1-15h-16l-15-1v4zM568 145v15h10l15 1 6-1v-30h-31v15zM700 148l1 18h131v-36H700v18zM700 213v17h65l65-1v-34H700v18zM510 220v15h31v-30h-31v15zM620 219v16l15 1h15v-9l1-15v-6h-8l-15-1h-8v14zM566 221v15h30l1-15v-15h-31v15zM701 305v18h131v-36H701v18zM508 298l-1 15v6h31v-11l1-15v-4h-31v9zM618 290l-1 15v15h31v-30h-11a147 147 0 0 1-19 0zM564 305v15h10l15 1 6-1v-30h-31v15zM701 370v17h130v-35H701v18zM506 374l-1 15v6h31v-3l1-15v-12h-31v9zM616 366l-1 15v15h31v-30h-7a244 244 0 0 1-23 0zM562 381v15h30l1-15v-15h-31v15zM613 461l1 15 15 1h15v-31h-31v15zM700 471v17h131v-35H700v18zM700 535v17h130v-35H700v18zM611 546v15h30l1-16v-15h-31v16zM701 623v18h131v-36H701v18zM609 621v15h5l15 1 11-1v-30h-31v15zM334 519l-1 15v15h31v-30h-12a136 136 0 0 1-18 0zM389 535v15h31v-30h-31v15zM444 537v15h31v-30h-31v15zM500 538v15h14l16 1 1-16v-15h-31v15zM332 595l-1 15v15h31v-30h-4a428 428 0 0 1-26 0zM387 611v15h31v-30h-31v15zM442 613v15h31v-30h-31v15zM498 614v15h14l16 1 1-16v-15h-31v15zM330 679l-1 15v15h31v-30h-12a136 136 0 0 1-18 0zM385 695v15h31v-30h-31v15zM327 769v16h31v-30h-4l-16-1h-11v15zM383 771v15h31v-30h-31v15zM325 850v15h3l16 1 11-1v-30h-30v15zM381 852v15h31v-31h-31v16zM322 920v15l1 15h30v-31h-15l-16 1zM379 935v16h30v-6l1-15v-9h-4l-15-1h-12v15zM321 1003l-1 15v7h5l15 1h11v-30l-15-1h-15v8zM377 1012v15h15l16-1v-29l-16-1h-15v16zM490 771v15h31v-30h-31v15zM547 762l-1 15v10h8l15 1h8v-30l-15-1h-15v5zM601 775v15h31v-30h-8l-15-1h-8v16zM658 761l-1 15v15h31v-30h-12a136 136 0 0 1-18 0zM488 847v15h31v-30h-31v15zM545 848l-1 14 16 1 15 1v-15l1-15-16-1h-15v15zM599 851v15h31v-30h-8l-15-1h-8v16zM656 837l-1 15v15h31v-30h-11a147 147 0 0 1-19 0zM489 930v15h31v-30h-31v15zM545 931v15h31v-30h-31v15zM600 919l-1 15v14h8l15 1h8v-30h-30zM656 934v15l15 1h15l1-15v-15h-5l-15-1h-11v14zM487 1006v15h31v-30h-31v15zM543 1007v15h31v-30h-31v15zM598 1003l-1 15v6h15l16 1v-15l1-15-16-1h-15v9zM654 1011v15h15l15-1 1-14v-15l-16-1h-15v16z"/>
</svg>