
<svg width="403px" height="456px" viewBox="0 0 403 456" version="1.1" xmlns="http://www.w3.org/2000/svg" xmlns:xlink="http://www.w3.org/1999/xlink">
    <!-- Generator: Sketch 48.2 (47327) - http://www.bohemiancoding.com/sketch -->
    <desc>Created with Sketch.</desc>
    <defs></defs>
    <g id="Page-1" stroke="none" stroke-width="1" fill="none" fill-rule="evenodd">
        <g id="Group">
            <path d="M258.359985,425.370755 C254.411247,437.077195 241.62474,428.943078 240,422.577226 C237.78104,413.883174 237.463569,382.425169 237,362.965012 C236.397063,337.654289 212.065434,337.702381 212.065434,362.965012 C212.065434,378.951058 212.065434,387.527111 212.065434,409.006332 C212.065434,415.070779 198.257835,420.062243 192.382874,411.856346 C189.164543,407.361117 190.254034,396.629097 190,385.965012 C189.397063,360.654289 165.065434,360.702381 165.065434,385.965012 C165.065434,402.365832 165.065434,422.577931 163.699176,439.004442 C162.835292,449.390908 146.034108,452.412284 141.640015,439.004442 L141.640015,32.5070278 L200,0 L258.359985,32.5070278 L258.359985,425.370755 Z" id="Combined-Shape" fill="#007BFF"></path>
            <path d="M46.4834147,386.817463 C46.4282987,372.797631 46.2671605,360.180147 46,348.965012 C45.9033951,344.909635 45.1976361,341.505259 44.0804048,338.751293 C44.0776742,338.335281 44.0750132,337.918183 44.0724218,337.5 L43.5234221,337.5 C37.2102064,324.539073 21.0654339,328.386738 21.0654339,348.965012 C21.0654339,374.687329 20.7756727,407.498189 20.1961502,447.397593 C12.5137537,454.363262 0.959639899,447.349975 0.534706869,426.304604 C0.0436040923,401.982089 -0.109207812,372.380554 0.0762711548,337.5 L0,337.5 L0,111.403672 L116,46.7668672 L116,404.926112 C112.398825,421.63551 99.3993997,423.477004 93.4870611,410.392209 C93.5622332,381.567899 93.3998795,356.668962 93,335.695396 C92.3970625,304.071498 68.0654339,304.131586 68.0654339,335.695396 C68.0654339,351.711408 67.9934712,369.926974 67.8495459,390.342096 C62.3543485,401.609906 51.0364724,400.44989 46.4834147,386.817463 Z" id="Combined-Shape" fill="#E3AE22"></path>
            <path d="M356.516585,392.050596 C351.963528,405.683022 340.645651,406.843039 335.150454,395.575229 C335.006529,375.160107 334.934566,356.94454 334.934566,340.928529 C334.934566,309.364719 310.602937,309.304631 310,340.928529 C309.60012,361.902094 309.437767,386.801032 309.512939,415.625342 C303.6006,428.710137 290.601175,426.868643 287,410.159245 L287,52 L403,116.636805 L403,342.733133 L402.923729,342.733133 C403.109208,377.613687 402.956396,407.215221 402.465293,431.537737 C402.04036,452.583108 390.486246,459.596395 382.80385,452.630726 C382.224327,412.731322 381.934566,379.920461 381.934566,354.198145 C381.934566,333.619871 365.789794,329.772206 359.476578,342.733133 L358.927578,342.733133 C358.924987,343.151316 358.922326,343.568413 358.919595,343.984426 C357.802364,346.738392 357.096605,350.142768 357,354.198145 C356.73284,365.41328 356.571701,378.030764 356.516585,392.050596 Z" id="Combined-Shape" fill="#D43F77"></path>
        </g>
    </g>
</svg>