<svg xmlns="http://www.w3.org/2000/svg" xmlns:xlink="http://www.w3.org/1999/xlink" width="493" height="1023" viewBox="0 0 493 1023">
  <defs/>
  <defs>
    <linearGradient id="c" x1="0%" x2="100.000327%" y1="50%" y2="50%">
      <stop offset="0%" stop-color="#E91348"/>
      <stop offset="16.0428%" stop-color="#E91348"/>
      <stop offset="37.4418%" stop-color="#F9A72B"/>
      <stop offset="57.9265%" stop-color="#7FCC28"/>
      <stop offset="80.0127%" stop-color="#51ADE5"/>
      <stop offset="100%" stop-color="#2C3892"/>
    </linearGradient>
    <path id="a" d="M.12 306.839992V13.9599997C.12 6.31999984 6.3066665.12 13.9599997.12H24.906666c7.6399999 0 13.8399997 6.19999984 13.8399997 13.8399997V155.013329c0 7.64 6.1866665 13.826667 13.8266663 13.826667h.9866667c7.6399998 0 13.8399996-6.186667 13.8399996-13.826667v-1.933333c0-7.64 6.1999999-13.839999 13.8399997-13.839999h9.0133331c7.6399998 0 13.8399999-6.2 13.8399999-13.84V97.9733309c0-7.6399998 6.186666-13.8399997 13.826666-13.8399997s13.84 6.1999999 13.84 13.8399997v69.0799981c0 7.64 6.2 13.84 13.839999 13.84h2.946667c7.64 0 13.84-6.2 13.84-13.84V79.7466647c0-7.6399998 6.186666-13.8399997 13.839999-13.8399997h13.8c7.64 0 13.826666 6.1999999 13.826666 13.8399997V187.879995c0 7.64 6.2 13.84 13.84 13.84h.986667c7.639999 0 13.839999-6.2 13.839999-13.84v-1.933333c0-7.64 6.186667-13.84 13.826667-13.84h9.026666c7.64 0 13.826666-6.186666 13.826666-13.826666v-27.439999c0-7.64 6.2-13.826667 13.84-13.826667h.986667c7.639999 0 13.826666 6.186667 13.826666 13.826667v57.039998c0 7.64 6.2 13.84 13.84 13.84h.986666c7.64 0 13.84-6.2 13.84-13.84v-75.266664c0-7.64 6.186666-13.8266668 13.826666-13.8266668h14.8c7.64 0 13.826666-6.1999998 13.826666-13.8399997V13.9599997c0-7.63999986 6.2-13.8399997 13.84-13.8399997h10.946666c7.64 0 13.84 6.19999984 13.84 13.8399997V306.839992H.12z"/>
  </defs>
  <g fill="none" fill-rule="evenodd">
    <path fill="#F1AD53" fill-rule="nonzero" d="M214.733284 363.920085v-46.359999c20.013332-2.12 34.879999-9.893333 34.879999-19.2 0-6.786666-7.92-12.773333-19.986666-16.333333V26.333426c0-14.199999-11.626667-25.826666-25.84-25.826666-14.199999 0-25.826666 11.626667-25.826666 25.826666v255.693327c-12.066666 3.56-19.986666 9.546667-19.986666 16.333333 0 9.306667 14.866666 17.08 34.879999 19.2v59.986665l277.973327 136.639997v108.5999969h-81.239998v21.86666607h103.106664V500.560081L214.733284 363.920085"/>
    <g transform="matrix(1 0 0 -1 -.066711 1022.466736)">
      <mask id="b" fill="#fff">
        <use xlink:href="#a"/>
      </mask>
      <g fill="url(#c)" fill-rule="nonzero" mask="url(#b)">
        <path d="M.12 306.839992V13.9599997C.12 6.31999984 6.3066665.12 13.9599997.12H24.906666c7.6399999 0 13.8399997 6.19999984 13.8399997 13.8399997V155.013329c0 7.64 6.1866665 13.826667 13.8266663 13.826667h.9866667c7.6399998 0 13.8399996-6.186667 13.8399996-13.826667v-1.933333c0-7.64 6.1999999-13.839999 13.8399997-13.839999h9.0133331c7.6399998 0 13.8399999-6.2 13.8399999-13.84V97.9733309c0-7.6399998 6.186666-13.8399997 13.826666-13.8399997s13.84 6.1999999 13.84 13.8399997v69.0799981c0 7.64 6.2 13.84 13.839999 13.84h2.946667c7.64 0 13.84-6.2 13.84-13.84V79.7466647c0-7.6399998 6.186666-13.8399997 13.839999-13.8399997h13.8c7.64 0 13.826666 6.1999999 13.826666 13.8399997V187.879995c0 7.64 6.2 13.84 13.84 13.84h.986667c7.639999 0 13.839999-6.2 13.839999-13.84v-1.933333c0-7.64 6.186667-13.84 13.826667-13.84h9.026666c7.64 0 13.826666-6.186666 13.826666-13.826666v-27.439999c0-7.64 6.2-13.826667 13.84-13.826667h.986667c7.639999 0 13.826666 6.186667 13.826666 13.826667v57.039998c0 7.64 6.2 13.84 13.84 13.84h.986666c7.64 0 13.84-6.2 13.84-13.84v-75.266664c0-7.64 6.186666-13.8266668 13.826666-13.8266668h14.8c7.64 0 13.826666-6.1999998 13.826666-13.8399997V13.9599997c0-7.63999986 6.2-13.8399997 13.84-13.8399997h10.946666c7.64 0 13.84 6.19999984 13.84 13.8399997V306.839992H.12"/>
      </g>
    </g>
    <path fill="#6ED0EB" fill-rule="nonzero" d="M396.066612 588.413414H11.5199553c-6.30666647 0-11.46666634 5.16-11.46666634 11.466666v67.679999c0 6.306666 5.15999987 11.466666 11.46666634 11.466666H396.066612c6.306667 0 11.466667-5.16 11.466667-11.466666V599.88008c0-6.306666-5.16-11.466666-11.466667-11.466666"/>
  </g>
</svg>